<svg xmlns="http://www.w3.org/2000/svg" xmlns:xlink="http://www.w3.org/1999/xlink" width="500" zoomAndPan="magnify" viewBox="0 0 375 374.999991" height="500" preserveAspectRatio="xMidYMid meet" version="1.0"><defs><g/><clipPath id="2a1dd6b2cb"><path d="M 45 149.941406 L 133.5625 149.941406 L 133.5625 238.503906 L 45 238.503906 Z M 45 149.941406 " clip-rule="nonzero"/></clipPath><clipPath id="304394ba0d"><path d="M 89.28125 149.941406 C 64.824219 149.941406 45 169.765625 45 194.222656 C 45 218.679688 64.824219 238.503906 89.28125 238.503906 C 113.738281 238.503906 133.5625 218.679688 133.5625 194.222656 C 133.5625 169.765625 113.738281 149.941406 89.28125 149.941406 " clip-rule="nonzero"/></clipPath><clipPath id="621a8d1174"><path d="M 55.546875 138 L 144 138 L 144 252.707031 L 55.546875 252.707031 Z M 55.546875 138 " clip-rule="nonzero"/></clipPath><clipPath id="c46265e62a"><path d="M 91 122.292969 L 97 122.292969 L 97 128 L 91 128 Z M 91 122.292969 " clip-rule="nonzero"/></clipPath></defs><rect x="-37.5" width="450" fill="#ffffff" y="-37.499999" height="449.999989" fill-opacity="1"/><rect x="-37.5" width="450" fill="#ffffff" y="-37.499999" height="449.999989" fill-opacity="1"/><rect x="-37.5" width="450" fill="#ffffff" y="-37.499999" height="449.999989" fill-opacity="1"/><g fill="#004aad" fill-opacity="1"><g transform="translate(162.644394, 190.29838)"><g><path d="M 20.363281 -22.457031 C 20.363281 -22.898438 19.996094 -23.15625 19.703125 -23.15625 L 14.738281 -23.15625 C 14.410156 -23.15625 14.042969 -22.898438 14.042969 -22.457031 L 14.042969 -11.871094 L 8.378906 -22.457031 C 8.195312 -22.789062 7.941406 -23.15625 7.535156 -23.15625 L 2.535156 -23.15625 C 2.207031 -23.15625 1.835938 -22.898438 1.835938 -22.457031 L 1.835938 -0.660156 C 1.835938 -0.21875 2.207031 0 2.535156 0 L 7.5 0 C 7.792969 0 8.160156 -0.21875 8.160156 -0.660156 L 8.160156 -11.027344 L 13.710938 -0.660156 C 13.929688 -0.292969 14.226562 0 14.554688 0 L 19.703125 0 C 19.996094 0 20.363281 -0.21875 20.363281 -0.660156 Z M 20.363281 -22.457031 "/></g></g></g><g fill="#004aad" fill-opacity="1"><g transform="translate(184.841398, 190.29838)"><g><path d="M 15.953125 -10.84375 C 15.953125 -15.730469 12.902344 -18.230469 8.894531 -18.230469 C 6.761719 -18.230469 4.152344 -18.046875 2.425781 -17.164062 C 2.207031 -17.054688 2.058594 -16.871094 2.058594 -16.6875 C 2.058594 -16.613281 2.09375 -16.246094 2.757812 -12.753906 C 2.867188 -12.496094 3.085938 -12.425781 3.269531 -12.425781 C 4.667969 -12.644531 6.066406 -13.011719 7.460938 -13.011719 C 8.75 -13.011719 9.375 -12.535156 9.375 -11.175781 L 9.375 -10.992188 L 7.941406 -10.992188 C 4.375 -10.992188 1.285156 -10.070312 1.285156 -5.511719 C 1.285156 -0.441406 4.851562 0.292969 8.636719 0.292969 C 9.484375 0.292969 15.953125 -0.0742188 15.953125 -1.617188 Z M 9.628906 -4.667969 C 9.628906 -4.484375 8.894531 -4.152344 8.195312 -4.152344 C 7.351562 -4.152344 6.984375 -4.59375 6.984375 -5.882812 C 6.984375 -7.058594 8.160156 -7.460938 9.078125 -7.460938 L 9.628906 -7.460938 Z M 9.628906 -4.667969 "/></g></g></g><g fill="#004aad" fill-opacity="1"><g transform="translate(202.444653, 190.29838)"><g><path d="M 10.621094 -7.019531 C 10.621094 -7.019531 9.996094 -6.835938 9.410156 -6.835938 C 8.601562 -6.835938 7.71875 -7.09375 7.644531 -8.308594 C 7.644531 -8.308594 7.570312 -8.820312 7.570312 -9.8125 C 7.570312 -10.808594 7.644531 -11.542969 7.644531 -11.542969 C 7.71875 -12.753906 8.601562 -13.011719 9.410156 -13.011719 C 9.996094 -13.011719 10.621094 -12.828125 10.621094 -12.828125 Z M 10.328125 -1.175781 C 10.328125 0.183594 9.777344 0.734375 7.644531 0.734375 C 6.25 0.734375 4.742188 0.257812 3.125 -0.550781 C 2.941406 -0.550781 2.71875 -0.476562 2.609375 -0.21875 C 1.949219 3.269531 1.910156 3.640625 1.910156 3.710938 C 1.910156 3.894531 2.09375 4.042969 2.277344 4.191406 C 3.824219 5.402344 6.101562 5.953125 8.234375 5.953125 C 13.050781 5.953125 16.910156 3.050781 16.910156 -1.835938 L 16.910156 -16.320312 C 16.910156 -17.863281 9.886719 -18.230469 9.078125 -18.230469 C 4.449219 -18.230469 1.285156 -16.910156 1.285156 -9.335938 C 1.285156 -2.535156 5.367188 -1.617188 8.269531 -1.617188 C 8.96875 -1.617188 9.777344 -1.691406 10.328125 -1.875 Z M 10.328125 -1.175781 "/></g></g></g><g fill="#004aad" fill-opacity="1"><g transform="translate(221.187156, 190.29838)"><g><path d="M 5.585938 -2.023438 C 5.585938 -0.40625 5.402344 0.734375 3.527344 0.734375 C 2.574219 0.734375 2.460938 0.734375 1.066406 0.292969 C 0.882812 0.292969 0.660156 0.367188 0.550781 0.625 C -0.109375 4.117188 -0.183594 4.152344 -0.183594 4.226562 C -0.183594 4.632812 0.0351562 4.851562 0.21875 5.035156 C 1.617188 5.769531 2.058594 5.953125 4.191406 5.953125 C 7.058594 5.953125 10.511719 5.550781 12.828125 -1.617188 L 17.902344 -17.238281 C 17.902344 -17.679688 17.535156 -17.9375 17.203125 -17.9375 L 12.242188 -17.9375 C 11.945312 -17.9375 11.6875 -17.679688 11.578125 -17.238281 L 9.226562 -7.5 L 6.875 -17.238281 C 6.761719 -17.679688 6.507812 -17.9375 6.210938 -17.9375 L 1.25 -17.9375 C 0.917969 -17.9375 0.550781 -17.679688 0.550781 -17.238281 Z M 5.585938 -2.023438 "/></g></g></g><g fill="#004aad" fill-opacity="1"><g transform="translate(239.451914, 190.29838)"><g><path d="M 4.410156 -7.277344 C 4.300781 -7.351562 4.191406 -7.386719 4.082031 -7.386719 C 3.824219 -7.386719 3.601562 -7.242188 3.492188 -7.058594 L 1.398438 -3.417969 C 1.324219 -3.308594 1.285156 -3.199219 1.285156 -3.050781 C 1.285156 -2.867188 1.398438 -2.683594 1.617188 -2.5 C 4.816406 0.332031 9.851562 0.292969 9.851562 0.292969 C 18.121094 0.0742188 18.78125 -5.476562 18.78125 -6.875 C 18.78125 -15.695312 7.753906 -13.746094 7.753906 -16.578125 C 7.753906 -17.460938 8.710938 -17.753906 10.144531 -17.753906 C 11.910156 -17.753906 13.453125 -17.496094 14.519531 -17.128906 C 14.667969 -17.09375 14.851562 -17.019531 14.960938 -17.019531 C 15.21875 -17.019531 15.328125 -17.164062 15.4375 -17.347656 L 17.019531 -20.914062 C 17.054688 -21.023438 17.128906 -21.210938 17.128906 -21.355469 C 17.128906 -21.539062 17.054688 -21.722656 16.796875 -21.832031 C 14.296875 -23.121094 12.679688 -23.453125 9.8125 -23.453125 C 5.183594 -23.453125 1.433594 -21.320312 1.433594 -16.285156 C 1.433594 -8.085938 12.460938 -9.742188 12.460938 -6.691406 C 12.460938 -6.175781 12.242188 -5.402344 10.035156 -5.402344 C 8.269531 -5.402344 6.136719 -5.917969 4.410156 -7.277344 Z M 4.410156 -7.277344 "/></g></g></g><g fill="#004aad" fill-opacity="1"><g transform="translate(259.333676, 190.29838)"><g><path d="M 7.792969 -10.144531 C 7.792969 -11.503906 8.125 -13.011719 10.550781 -13.011719 C 11.945312 -13.011719 12.753906 -12.644531 14.152344 -12.425781 C 14.335938 -12.425781 14.554688 -12.496094 14.667969 -12.753906 C 15.328125 -16.246094 15.363281 -16.613281 15.363281 -16.6875 C 15.363281 -16.871094 15.21875 -17.054688 14.996094 -17.164062 C 13.269531 -18.046875 11.175781 -18.230469 9.042969 -18.230469 C 4.226562 -18.230469 1.46875 -14.667969 1.46875 -9.777344 L 1.46875 -8.160156 C 1.46875 -3.269531 4.226562 0.292969 9.042969 0.292969 C 11.175781 0.292969 13.269531 0.109375 14.996094 -0.773438 C 15.21875 -0.882812 15.363281 -1.066406 15.363281 -1.25 C 15.363281 -1.324219 15.328125 -1.691406 14.667969 -5.183594 C 14.554688 -5.441406 14.335938 -5.511719 14.152344 -5.511719 C 12.753906 -5.292969 11.945312 -4.925781 10.550781 -4.925781 C 8.125 -4.925781 7.792969 -6.433594 7.792969 -7.792969 Z M 7.792969 -10.144531 "/></g></g></g><g fill="#004aad" fill-opacity="1"><g transform="translate(275.797683, 190.29838)"><g><path d="M 15.953125 -10.84375 C 15.953125 -15.730469 12.902344 -18.230469 8.894531 -18.230469 C 6.761719 -18.230469 4.152344 -18.046875 2.425781 -17.164062 C 2.207031 -17.054688 2.058594 -16.871094 2.058594 -16.6875 C 2.058594 -16.613281 2.09375 -16.246094 2.757812 -12.753906 C 2.867188 -12.496094 3.085938 -12.425781 3.269531 -12.425781 C 4.667969 -12.644531 6.066406 -13.011719 7.460938 -13.011719 C 8.75 -13.011719 9.375 -12.535156 9.375 -11.175781 L 9.375 -10.992188 L 7.941406 -10.992188 C 4.375 -10.992188 1.285156 -10.070312 1.285156 -5.511719 C 1.285156 -0.441406 4.851562 0.292969 8.636719 0.292969 C 9.484375 0.292969 15.953125 -0.0742188 15.953125 -1.617188 Z M 9.628906 -4.667969 C 9.628906 -4.484375 8.894531 -4.152344 8.195312 -4.152344 C 7.351562 -4.152344 6.984375 -4.59375 6.984375 -5.882812 C 6.984375 -7.058594 8.160156 -7.460938 9.078125 -7.460938 L 9.628906 -7.460938 Z M 9.628906 -4.667969 "/></g></g></g><g fill="#004aad" fill-opacity="1"><g transform="translate(293.400938, 190.29838)"><g><path d="M 11.175781 -0.660156 C 11.175781 -0.21875 11.542969 0 11.835938 0 L 16.835938 0 C 17.128906 0 17.496094 -0.21875 17.496094 -0.660156 L 17.496094 -8.894531 C 17.496094 -16.46875 14.296875 -18.230469 9.703125 -18.230469 C 8.859375 -18.230469 1.835938 -17.863281 1.835938 -16.320312 L 1.835938 -0.660156 C 1.835938 -0.21875 2.207031 0 2.5 0 L 7.5 0 C 7.792969 0 8.160156 -0.21875 8.160156 -0.660156 L 8.160156 -12.828125 C 8.160156 -12.828125 8.75 -13.011719 9.335938 -13.011719 C 10.144531 -13.011719 11.0625 -12.753906 11.175781 -11.542969 Z M 11.175781 -0.660156 "/></g></g></g><g clip-path="url(#2a1dd6b2cb)"><g clip-path="url(#304394ba0d)"><path fill="#fdddf0" d="M 45 149.941406 L 133.5625 149.941406 L 133.5625 238.503906 L 45 238.503906 Z M 45 149.941406 " fill-opacity="1" fill-rule="nonzero"/></g></g><path fill="#ff66c4" d="M 61.625 196.589844 C 63.15625 210.375 74.859375 221.089844 89.082031 221.089844 C 101.1875 221.089844 111.472656 213.308594 115.199219 202.480469 C 108.253906 204.71875 98.972656 204.953125 89.691406 198.894531 C 78.894531 191.835938 67.984375 194.113281 61.625 196.589844 Z M 77.9375 212.347656 C 79.1875 212.347656 80.203125 213.363281 80.203125 214.613281 C 80.203125 215.847656 79.1875 216.863281 77.9375 216.863281 C 76.699219 216.863281 75.683594 215.847656 75.683594 214.613281 C 75.683594 213.363281 76.695312 212.347656 77.9375 212.347656 Z M 89.082031 207.84375 C 90.613281 207.84375 91.851562 209.078125 91.851562 210.621094 C 91.851562 212.152344 90.613281 213.386719 89.082031 213.386719 C 87.550781 213.386719 86.300781 212.152344 86.300781 210.621094 C 86.296875 209.082031 87.550781 207.84375 89.082031 207.84375 Z M 82.679688 198.046875 C 84.808594 198.046875 86.519531 199.773438 86.519531 201.882812 C 86.519531 204.007812 84.808594 205.71875 82.679688 205.71875 C 80.5625 205.71875 78.839844 204.007812 78.839844 201.882812 C 78.839844 199.773438 80.5625 198.046875 82.679688 198.046875 Z M 82.679688 198.046875 " fill-opacity="1" fill-rule="evenodd"/><path fill="#ff92d5" d="M 115.199219 202.480469 C 115.199219 202.480469 102.675781 188.152344 88.261719 198.003906 C 88.734375 198.285156 89.21875 198.574219 89.691406 198.894531 C 98.972656 204.953125 108.253906 204.71875 115.199219 202.480469 Z M 99.042969 196.867188 C 100.03125 196.867188 100.824219 197.65625 100.824219 198.644531 C 100.824219 199.617188 100.03125 200.410156 99.042969 200.410156 C 98.070312 200.410156 97.277344 199.617188 97.277344 198.644531 C 97.277344 197.65625 98.070312 196.867188 99.042969 196.867188 Z M 99.042969 196.867188 " fill-opacity="1" fill-rule="evenodd"/><g clip-path="url(#621a8d1174)"><path fill="#004aad" d="M 100.476562 161.996094 C 113.378906 166.652344 122.601562 179.007812 122.601562 193.503906 C 122.601562 202.382812 119.152344 210.441406 113.515625 216.433594 L 116.230469 219.296875 L 111.664062 223.632812 L 108.785156 220.601562 C 103.246094 224.621094 96.441406 226.996094 89.078125 226.996094 C 70.558594 226.996094 55.546875 212 55.546875 193.503906 C 55.546875 179.007812 64.773438 166.652344 77.671875 161.996094 L 77.671875 145.625 L 72.105469 145.625 C 70.058594 145.625 68.375 143.960938 68.375 141.902344 C 68.375 139.859375 70.0625 138.179688 72.105469 138.179688 L 87.148438 138.179688 C 87.050781 138.625 87.007812 139.082031 87.007812 139.542969 C 87.007812 143.40625 90.136719 146.546875 94.003906 146.546875 C 97.886719 146.546875 101.019531 143.40625 101.019531 139.542969 C 101.019531 139.082031 100.980469 138.625 100.878906 138.179688 L 106.042969 138.179688 C 108.089844 138.179688 109.769531 139.863281 109.769531 141.902344 C 109.769531 143.960938 108.085938 145.625 106.042969 145.625 L 100.476562 145.625 Z M 117.523438 220.65625 L 119.109375 222.324219 L 114.542969 226.660156 L 112.957031 224.996094 Z M 122.894531 221.339844 C 124.078125 221.253906 125.289062 221.671875 126.167969 222.601562 L 136.3125 233.261719 L 124.582031 244.378906 L 114.433594 233.722656 C 113.558594 232.789062 113.199219 231.566406 113.351562 230.382812 Z M 137.601562 234.625 L 139.1875 236.308594 L 127.457031 247.410156 L 125.871094 245.742188 Z M 140.484375 237.667969 L 142.488281 239.765625 C 144.046875 241.40625 143.976562 244.019531 142.335938 245.574219 L 136.574219 251.035156 C 134.929688 252.589844 132.316406 252.523438 130.757812 250.882812 L 128.753906 248.769531 Z M 89.082031 164.984375 C 105.042969 164.984375 117.996094 177.925781 117.996094 193.878906 C 117.996094 209.832031 105.042969 222.757812 89.082031 222.757812 C 73.109375 222.757812 60.152344 209.832031 60.152344 193.878906 C 60.152344 177.925781 73.109375 164.984375 89.082031 164.984375 Z M 89.082031 164.984375 " fill-opacity="1" fill-rule="evenodd"/></g><path fill="#ff47b8" d="M 61.625 196.589844 C 63.15625 210.375 74.859375 221.089844 89.082031 221.089844 C 101.1875 221.089844 111.472656 213.308594 115.199219 202.480469 C 90.222656 227.71875 74.21875 206.160156 68.109375 194.722656 C 65.648438 195.1875 63.449219 195.878906 61.625 196.589844 Z M 77.9375 212.347656 C 79.1875 212.347656 80.203125 213.363281 80.203125 214.613281 C 80.203125 215.847656 79.1875 216.863281 77.9375 216.863281 C 76.699219 216.863281 75.683594 215.847656 75.683594 214.613281 C 75.683594 213.363281 76.695312 212.347656 77.9375 212.347656 Z M 77.9375 212.347656 " fill-opacity="1" fill-rule="evenodd"/><path fill="#ff66c4" d="M 94.007812 134.914062 C 96.582031 134.914062 98.65625 136.980469 98.65625 139.539062 C 98.65625 142.097656 96.585938 144.183594 94.007812 144.183594 C 91.449219 144.183594 89.375 142.097656 89.375 139.539062 C 89.375 136.980469 91.449219 134.914062 94.007812 134.914062 Z M 94.007812 134.914062 " fill-opacity="1" fill-rule="evenodd"/><path fill="#ff66c4" d="M 87.371094 127.226562 C 89.347656 127.226562 90.960938 128.828125 90.960938 130.800781 C 90.960938 132.785156 89.347656 134.386719 87.371094 134.386719 C 85.394531 134.386719 83.792969 132.785156 83.792969 130.800781 C 83.792969 128.828125 85.394531 127.226562 87.371094 127.226562 Z M 87.371094 127.226562 " fill-opacity="1" fill-rule="evenodd"/><g clip-path="url(#c46265e62a)"><path fill="#ff66c4" d="M 94.230469 122.335938 C 95.648438 122.335938 96.789062 123.476562 96.789062 124.894531 C 96.789062 126.308594 95.648438 127.449219 94.230469 127.449219 C 92.808594 127.449219 91.667969 126.308594 91.667969 124.894531 C 91.667969 123.476562 92.808594 122.335938 94.230469 122.335938 Z M 94.230469 122.335938 " fill-opacity="1" fill-rule="evenodd"/></g><path fill="#004aad" d="M 88.636719 193.878906 L 87.554688 193.878906 C 79.523438 190.066406 70.699219 189.960938 62.1875 192.835938 C 61.710938 186.261719 65.886719 177.769531 72.609375 184.789062 C 72.371094 185.207031 72.230469 185.679688 72.230469 186.195312 C 72.230469 187.738281 73.484375 188.972656 75.027344 188.972656 C 76.574219 188.972656 77.8125 187.738281 77.8125 186.195312 C 77.8125 184.652344 76.574219 183.398438 75.027344 183.398438 C 74.847656 183.398438 74.679688 183.429688 74.527344 183.453125 C 73.136719 181.882812 71.355469 181.039062 69.753906 180.589844 C 70.253906 173.140625 78.480469 169.613281 83.90625 172.449219 C 83.851562 174.351562 84.171875 176.726562 85.296875 179.5625 C 84.851562 180.046875 84.574219 180.714844 84.574219 181.441406 C 84.574219 182.96875 85.8125 184.21875 87.355469 184.21875 C 88.898438 184.21875 90.152344 182.964844 90.152344 181.441406 C 90.152344 179.925781 88.929688 178.6875 87.425781 178.644531 C 81.859375 164.667969 98.292969 168.390625 100.28125 172.808594 C 99.042969 173.519531 97.707031 174.617188 96.71875 176.269531 C 95.273438 176.382812 94.144531 177.589844 94.144531 179.046875 C 94.144531 180.589844 95.398438 181.828125 96.929688 181.828125 C 98.472656 181.828125 99.726562 180.589844 99.726562 179.046875 C 99.726562 178.296875 99.417969 177.601562 98.933594 177.105469 C 103.496094 170.421875 112.152344 177.050781 111.402344 183.941406 C 109.675781 184.136719 106.988281 184.578125 104.875 185.59375 C 104.390625 185.152344 103.734375 184.886719 103.023438 184.886719 C 101.480469 184.886719 100.242188 186.136719 100.242188 187.664062 C 100.242188 189.207031 101.480469 190.457031 103.023438 190.457031 C 104.554688 190.457031 105.792969 189.234375 105.804688 187.707031 C 114.488281 183.382812 116.496094 190.570312 114.90625 197.601562 C 112.917969 195.960938 110.621094 194.488281 108.546875 193.5 C 101.8125 190.308594 94.953125 190.445312 88.636719 193.878906 Z M 101.800781 187.667969 C 101.800781 187 102.34375 186.457031 103.023438 186.457031 C 103.707031 186.457031 104.25 187 104.25 187.667969 C 104.25 188.347656 103.707031 188.890625 103.023438 188.890625 C 102.34375 188.890625 101.800781 188.347656 101.800781 187.667969 Z M 95.707031 179.050781 C 95.707031 178.371094 96.261719 177.828125 96.929688 177.828125 C 97.613281 177.828125 98.15625 178.371094 98.15625 179.050781 C 98.15625 179.730469 97.613281 180.273438 96.929688 180.273438 C 96.261719 180.273438 95.707031 179.730469 95.707031 179.050781 Z M 86.128906 181.441406 C 86.128906 180.757812 86.6875 180.21875 87.355469 180.21875 C 88.035156 180.21875 88.578125 180.757812 88.578125 181.441406 C 88.578125 182.105469 88.035156 182.664062 87.355469 182.664062 C 86.6875 182.664062 86.128906 182.105469 86.128906 181.441406 Z M 73.800781 186.195312 C 73.800781 185.515625 74.34375 184.972656 75.027344 184.972656 C 75.695312 184.972656 76.25 185.515625 76.25 186.195312 C 76.25 186.863281 75.695312 187.417969 75.027344 187.417969 C 74.34375 187.417969 73.800781 186.863281 73.800781 186.195312 Z M 73.800781 186.195312 " fill-opacity="1" fill-rule="evenodd"/></svg>